<?xml version="1.0" encoding="UTF-8"?>
<svg version="1.1" xmlns="http://www.w3.org/2000/svg" width="192" height="192">
<path d="M0 0 C6.49160331 3.62031723 11.44742011 7.76025026 13.63671875 15.03515625 C14.07939494 16.645969 14.5127396 18.25937055 14.9375 19.875 C15.16244141 20.69033203 15.38738281 21.50566406 15.61914062 22.34570312 C16.50680245 25.62924246 17.25 28.39241281 17.25 31.8125 C17.91 31.8125 18.57 31.8125 19.25 31.8125 C19.35957031 31.13445313 19.46914062 30.45640625 19.58203125 29.7578125 C22.91141379 10.21460769 22.91141379 10.21460769 30.25 3.8125 C36.74912903 -0.71343274 42.47932223 -1.83801336 50.25 -1.1875 C57.06119467 0.93401965 62.07897632 5.07019746 65.52734375 11.39453125 C67.94610407 19.48757255 66.8175625 28.924948 64.25 36.8125 C64.79269531 36.46316406 65.33539063 36.11382812 65.89453125 35.75390625 C66.96767578 35.07134766 66.96767578 35.07134766 68.0625 34.375 C68.77019531 33.92253906 69.47789062 33.47007813 70.20703125 33.00390625 C75.50281582 29.9155424 81.30924394 30.17045556 87.25 30.8125 C93.94228535 33.04326178 97.71389922 36.84532993 101.25 42.8125 C103.78084994 50.40504982 103.26838835 58.72380417 99.75 65.875 C98.62226083 67.8766034 97.45323035 69.85534683 96.25 71.8125 C95.57710937 72.91980469 94.90421875 74.02710937 94.2109375 75.16796875 C92.88480883 77.32603207 91.54275466 79.47445053 90.1796875 81.609375 C86.06159995 88.44506689 83.68605651 93.79349721 83.125 101.8125 C81.95336753 116.42051334 77.38823066 130.11924767 68.25 141.8125 C67.59 141.8125 66.93 141.8125 66.25 141.8125 C65.92 142.8025 65.59 143.7925 65.25 144.8125 C64.59 144.8125 63.93 144.8125 63.25 144.8125 C62.92 145.8025 62.59 146.7925 62.25 147.8125 C61.59 147.8125 60.93 147.8125 60.25 147.8125 C59.92 148.8025 59.59 149.7925 59.25 150.8125 C57.08862382 152.43133264 54.9709339 153.88773331 52.6875 155.3125 C52.04707764 155.7154126 51.40665527 156.1183252 50.74682617 156.53344727 C36.58261116 165.27681203 19.48919946 167.02488129 3.3125 163.5625 C-6.21666528 161.03076605 -14.90362807 156.85140411 -22.75 150.8125 C-23.08 149.8225 -23.41 148.8325 -23.75 147.8125 C-24.74 147.4825 -25.73 147.1525 -26.75 146.8125 C-26.75 146.1525 -26.75 145.4925 -26.75 144.8125 C-27.74 144.4825 -28.73 144.1525 -29.75 143.8125 C-29.75 143.1525 -29.75 142.4925 -29.75 141.8125 C-30.41 141.8125 -31.07 141.8125 -31.75 141.8125 C-41.15390463 128.94181376 -46.39796065 115.24772901 -47 99.3125 C-47.49720128 92.26881524 -50.00746598 87.68587637 -53.75 81.8125 C-54.92250077 79.89479616 -56.08400117 77.97081437 -57.2421875 76.04443359 C-58.01740395 74.75905632 -58.79956245 73.4778305 -59.58984375 72.20166016 C-64.95718635 63.43956786 -66.97938958 56.15108096 -65.75 45.8125 C-63.58385468 39.08300854 -59.72310213 35.35211608 -53.75 31.8125 C-48.27981174 29.98910391 -41.76877067 29.75832611 -36.2890625 31.671875 C-34.38775602 32.64726643 -32.58115388 33.71380767 -30.75 34.8125 C-29.76 35.1425 -28.77 35.4725 -27.75 35.8125 C-28.0696875 34.98234375 -28.389375 34.1521875 -28.71875 33.296875 C-30.82896742 26.16689795 -31.13742904 17.7624759 -28.65234375 10.6875 C-22.61582363 -0.12994405 -11.6828338 -3.69956404 0 0 Z " fill="#F7C5DC" transform="translate(77.75,14.1875)"/>
<path d="M0 0 C3.80372911 2.48368496 6.74528096 4.97369501 9.25 8.80078125 C9.25 9.46078125 9.25 10.12078125 9.25 10.80078125 C9.91 10.80078125 10.57 10.80078125 11.25 10.80078125 C11.415 10.09953125 11.58 9.39828125 11.75 8.67578125 C14.16587784 4.04534873 18.6164793 1.1175416 23.25 -1.19921875 C30.64522376 -1.89323206 37.190124 -1.84197453 43.25 2.80078125 C48.3672998 7.72772197 50.35815436 11.34455807 50.54272461 18.6015625 C50.6533392 31.2525947 47.71372354 39.22429724 39.25 48.80078125 C38.60289063 49.55359375 37.95578125 50.30640625 37.2890625 51.08203125 C31.18739776 57.70539967 24.1486434 61.69899508 16.25 65.80078125 C15.14591797 66.4040625 15.14591797 66.4040625 14.01953125 67.01953125 C10.9146903 68.39032196 8.34581478 67.82901417 5.25 66.80078125 C-9.67832317 59.70509027 -22.20094366 48.03680901 -28.75 32.80078125 C-30.01261005 29.0129511 -29.97317056 25.43556299 -30 21.48828125 C-30.020625 20.74126953 -30.04125 19.99425781 -30.0625 19.22460938 C-30.10415964 13.29331841 -28.97337089 9.19000844 -24.8125 4.71875 C-24.131875 4.14769531 -23.45125 3.57664062 -22.75 2.98828125 C-22.069375 2.40433594 -21.38875 1.82039063 -20.6875 1.21875 C-15.17777321 -2.81357021 -6.06786203 -2.64607052 0 0 Z " fill="#CBB3D6" transform="translate(85.75,84.19921875)"/>
</svg>
