<svg width="32" height="32" viewBox="0 0 32 32" fill="none" xmlns="http://www.w3.org/2000/svg">
<rect width="32" height="32" fill="#000"/>
<path d="M16 8 C18 8 20 10 20 12 C20 14 18 16 16 16 C14 16 12 14 12 12 C12 10 14 8 16 8Z" fill="#FFD1DC"/>
<path d="M12 10 C13 10 14 11 14 12 C14 13 13 14 12 14 C11 14 10 13 10 12 C10 11 11 10 12 10Z" fill="#FFD1DC"/>
<path d="M20 10 C21 10 22 11 22 12 C22 13 21 14 20 14 C19 14 18 13 18 12 C18 11 19 10 20 10Z" fill="#FFD1DC"/>
<path d="M10 12 C11 12 12 13 12 14 C12 15 11 16 10 16 C9 16 8 15 8 14 C8 13 9 12 10 12Z" fill="#FFD1DC"/>
<path d="M22 12 C23 12 24 13 24 14 C24 15 23 16 22 16 C21 16 20 15 20 14 C20 13 21 12 22 12Z" fill="#FFD1DC"/>
<path d="M16 18 C18 18 20 20 20 22 C20 24 18 26 16 26 C14 26 12 24 12 22 C12 20 14 18 16 18Z" fill="#FFD1DC"/>
<path d="M16 20 C16.5 20 17 20.5 17 21 C17 21.5 16.5 22 16 22 C15.5 22 15 21.5 15 21 C15 20.5 15.5 20 16 20Z" fill="#C8B5FF"/>
</svg> 